<?xml version="1.0" encoding="UTF-8"?>
<!DOCTYPE svg PUBLIC "-//W3C//DTD SVG 1.1//EN" "http://www.w3.org/Graphics/SVG/1.1/DTD/svg11.dtd">
<!-- Creator: CorelDRAW X7 -->
<svg xmlns="http://www.w3.org/2000/svg" xml:space="preserve" width="2755px" height="774px" version="1.1" style="shape-rendering:geometricPrecision; text-rendering:geometricPrecision; image-rendering:optimizeQuality; fill-rule:evenodd; clip-rule:evenodd"
viewBox="0 0 2755 774"
 xmlns:xlink="http://www.w3.org/1999/xlink">
 <defs>
  <style type="text/css">
   <![CDATA[
    .fil0 {fill:#3C5690}
   ]]>
  </style>
 </defs>
 <g id="Camada_x0020_1">
  <metadata id="CorelCorpID_0Corel-Layer"/>
  <path class="fil0" d="M1026 225c75,-6 102,60 105,125 3,72 -19,139 -86,145 -122,11 -125,-147 -89,-224 13,-28 32,-43 70,-46zm-193 404c22,138 185,171 299,125 93,-38 114,-95 114,-195 0,-51 0,-103 0,-154 0,-86 4,-184 -70,-238 -65,-41 -165,-61 -247,-24 -66,29 -103,108 -106,203 -2,57 7,113 36,158 40,61 105,98 180,86 35,-6 75,-28 92,-60 12,165 -146,172 -174,99l-124 0zm-630 -403c76,-7 104,61 106,125 1,72 -20,137 -88,143 -79,8 -103,-58 -105,-124 -3,-73 18,-137 87,-144zm-202 -225c-2,38 0,78 0,116l0 234c0,51 -2,105 23,151 22,40 58,60 100,75 61,22 139,22 197,-4 56,-24 84,-79 97,-136 23,-104 -1,-241 -98,-295 -42,-23 -102,-23 -144,-4 -31,14 -40,30 -60,54 -1,-26 2,-134 -3,-151 -5,-17 -20,-33 -39,-38 -12,-4 -58,-3 -73,-2zm2459 313c2,-53 31,-92 86,-92 58,0 83,36 86,92l-172 0zm293 76c5,-23 0,-76 -5,-100 -15,-82 -63,-146 -157,-162 -66,-11 -128,0 -171,33 -37,28 -66,72 -76,137 -9,60 -4,137 20,186 22,47 58,84 113,100 83,25 183,3 236,-65 13,-16 30,-48 35,-73 -24,0 -92,-3 -109,4 -13,6 -17,15 -22,20 -32,31 -87,34 -122,8 -23,-18 -37,-60 -35,-88l293 0zm-968 -76c2,-54 32,-92 86,-92 58,1 83,36 86,92l-172 0zm293 76c5,-22 -1,-78 -5,-101 -18,-88 -68,-147 -158,-161 -141,-23 -228,51 -247,172 -9,58 -3,137 21,185 67,135 262,146 349,34 12,-15 30,-49 34,-73 -23,0 -90,-3 -108,4 -13,5 -18,15 -22,20 -2,2 -4,4 -7,6 -25,25 -117,37 -143,-39 -3,-10 -9,-36 -7,-47l293 0zm-1377 -42c0,23 2,52 -3,73 -10,41 -41,65 -83,70 -95,10 -81,-78 -56,-96 26,-20 75,-23 115,-36 6,-2 24,-10 27,-11zm-259 -109l113 0c2,-2 4,-7 6,-9 21,-26 64,-26 93,-20 21,4 37,8 43,25 21,56 -93,58 -132,66 -36,6 -72,21 -95,40 -42,33 -48,104 -32,155 16,51 67,79 118,85 73,10 171,-4 220,-65 20,-25 29,-51 33,-85 4,-28 2,-101 2,-134 0,-89 1,-146 -98,-173 -23,-6 -51,-10 -81,-11 -56,-1 -116,12 -150,47 -22,23 -37,46 -40,79zm817 163c0,60 15,117 50,144 34,25 92,48 147,47 125,-1 195,-60 195,-192l0 -266 -59 -1c-42,0 -57,31 -57,69 0,42 0,84 0,125 0,26 2,101 -4,122 -19,64 -124,65 -147,10 -15,-37 -5,-270 -7,-326l-118 0 0 268zm768 -265c0,16 -2,30 6,43 19,32 74,37 110,37 1,12 0,199 0,220 0,72 -13,140 72,147 40,2 68,2 108,2 10,-1 25,0 34,-2l0 -87c-23,-2 -71,5 -88,-7 -10,-7 -9,-21 -9,-37l0 -142c0,-19 -1,-78 0,-93 31,-2 52,1 85,-15 35,-18 33,-35 33,-67l-118 0c-1,-20 0,-43 0,-63 0,-36 -14,-70 -55,-71 -19,0 -43,-1 -62,0l0 134 -116 1zm673 -28l-9 0 0 19 -11 0 0 -52 20 0c10,0 19,4 19,16 0,7 -3,12 -9,14l11 22 0 0 -11 0 -10 -19zm-9 -9l9 0c5,0 8,-2 8,-7 0,-6 -3,-8 -8,-8l-9 0 0 15zm9 -34c20,0 37,17 37,37 0,20 -17,36 -37,36 -20,0 -37,-16 -37,-36 0,-20 17,-37 37,-37zm0 -10c26,0 47,21 47,47 0,26 -21,47 -47,47 -26,0 -47,-21 -47,-47 0,-26 21,-47 47,-47z"/>
 </g>
</svg>
